<svg xmlns="http://www.w3.org/2000/svg" viewBox="0 0 66 66" style="stroke:#000"><path d="m33,2v51l32,10v-51l-32-10l-32,10v51l32-10" stroke-width="1" fill="#40E0D0"/><path d="m5,64l28-9l28,9" stroke-width="1" fill="none"/><path d="m48,16.65l2,.7v7l7,1.75v2l-7-1.75v20l-2-.7v-20l-7-1.75v-2l7,1.75z" stroke-width=".2"/><g stroke-width=".1" transform="matrix(.5 0 0 .5 10 15)"><path d="m5.73,58.35c-.4,2.1,1.8,6.5,6.25,6.64c5.36.18,8.8,-3.93,7.19,-10.62l-8,-36.95c-.96,-4.4,-.24,-6.78.27,-8.2c1.35,-3.8,4.74,-5.36,5.57,-4.15c0.47.7,1.6,3.94,-1.63,9.75c-2.53,4.52,-14.3,10.46,-15.17,21.1c-.75,9.24,8.92,16.06,17.27,13.38c5.54,-1.78,8.4,-10.2,4.97,-14.53c-9.05,-11.45,-23.57,6.07,-9.5,10.87c-1.54,-1.2,-2.58,-2.13,-2.77,-3.27c-2,-11,14.78,-8.16,10.29,2.36c-1.85,4.32,-9.3,5.16,-13.56,1.3c-3.56,-3.23,-5.14,-9.46,-1.18,-13.93c5.37,-6.06,11.7,-11.5,13.38,-19.78c2,-9.8,-4.5,-17.45,-8.6,-7.8c-1.38,3.23,-2,6.48,-.57,12.7l8,37.73c.57,2.7.2,6.42,-2.34,8.13c-1.24.85,-5.66,1.43,-6.74,-.6"/><path d="m5.67,58.66a3.77,3.84,1.08,1,1,7.54.15a3.77,3.84,1.08,1,1,-7.54,-.15z"/></g></svg>
